<svg width="800" height="800" viewBox="0 0 800 800" fill="none" xmlns="http://www.w3.org/2000/svg">
  <g transform="translate(150, 150) scale(0.625)">
    <path d="M400 100C350 100 300 125 275 150C250 175 225 225 225 275C225 325 250 375 275 400C300 425 350 450 400 450C450 450 500 425 525 400C550 375 575 325 575 275C575 225 550 175 525 150C500 125 450 100 400 100Z" fill="#E31B23"/>
    <path d="M400 50C375 50 350 75 350 100C350 125 375 150 400 150C425 150 450 125 450 100C450 75 425 50 400 50Z" fill="#E31B23"/>
  </g>
  <text x="400" y="600" text-anchor="middle" font-family="Arial" font-size="120" font-weight="bold">
    <tspan fill="#E31B23">Pepper</tspan><tspan fill="white">Ads</tspan>
  </text>
</svg>